PathFileType	4	(X/Y/Z)	E:/Marcel_BSc/Hannes_22_01_2025/22-01-2025/static_01_hjc.trc	
DataRate	CameraRate	NumFrames	NumMarkers	Units	OrigDataRate	OrigDataStartFrame	OrigNumFrames	
200.00	200.00	4	72	mm	200.00	125	497	
Frame#	Time	FHD			LBHD			RBHD			RBAR			LBAR			RASI			RSACR			LSACR			LASI			USACR			C7			CLAV			T10			RSHO			LSHO			LTHI1			LTHI3			LTHI2			LLFC			LMFC			LTIB1			LTIB2			LTIB3			LMMAL			LLMAL			LHEE			LMT1			LMT5			LMT3			RTHI1			RTHI2			RTHI3			RLFC			RMFC			RTIB1			RTIB3			RTIB2			RLMAL			RMMAL			RHEE			RMT5			RMT1			RMT3			LMEP			LLEP			LDUPA			LMUPA			LUUPA			LUL			LRAD			LRFIN			RUL			RRAD			RUFIN			RMEP			RLEP			RMUPA			RDUPA			RUUPA			*59			*60			*61			*62			*63			*64			*65			RAJC			LAJC			LKJC			RKJC			LHJC			RHJC			
		X1	Y1	Z1	X2	Y2	Z2	X3	Y3	Z3	X4	Y4	Z4	X5	Y5	Z5	X6	Y6	Z6	X7	Y7	Z7	X8	Y8	Z8	X9	Y9	Z9	X10	Y10	Z10	X11	Y11	Z11	X12	Y12	Z12	X13	Y13	Z13	X14	Y14	Z14	X15	Y15	Z15	X16	Y16	Z16	X17	Y17	Z17	X18	Y18	Z18	X19	Y19	Z19	X20	Y20	Z20	X21	Y21	Z21	X22	Y22	Z22	X23	Y23	Z23	X24	Y24	Z24	X25	Y25	Z25	X26	Y26	Z26	X27	Y27	Z27	X28	Y28	Z28	X29	Y29	Z29	X30	Y30	Z30	X31	Y31	Z31	X32	Y32	Z32	X33	Y33	Z33	X34	Y34	Z34	X35	Y35	Z35	X36	Y36	Z36	X37	Y37	Z37	X38	Y38	Z38	X39	Y39	Z39	X40	Y40	Z40	X41	Y41	Z41	X42	Y42	Z42	X43	Y43	Z43	X44	Y44	Z44	X45	Y45	Z45	X46	Y46	Z46	X47	Y47	Z47	X48	Y48	Z48	X49	Y49	Z49	X50	Y50	Z50	X51	Y51	Z51	X52	Y52	Z52	X53	Y53	Z53	X54	Y54	Z54	X55	Y55	Z55	X56	Y56	Z56	X57	Y57	Z57	X58	Y58	Z58	X59	Y59	Z59	X60	Y60	Z60	X61	Y61	Z61	X62	Y62	Z62	X63	Y63	Z63	X64	Y64	Z64	X65	Y65	Z65	X66	Y66	Z66	X67	Y67	Z67	X68	Y68	Z68	X69	Y69	Z69	X70	Y70	Z70	X71	Y71	Z71	X72	Y72	Z72	

125	0.620	66.07211	1220.97852	1709.76318	150.77606	1120.26685	1680.32397	163.19298	1314.49048	1675.62561	-530.17542	2111.51001	25.84947	-499.42892	-112.27797	36.27016	109.69418	1329.74121	988.03656	302.67029	1256.13269	1049.99927	303.14856	1148.77368	1055.45435	116.44921	1060.78967	994.89563	303.62146	1201.76782	1074.51196	294.87274	1207.09082	1492.80981	124.78186	1207.21997	1448.99866	293.56097	1202.20081	1170.53271	274.41684	1366.68396	1484.17200	273.02432	1046.73547	1491.13977	212.73320	982.93182	791.92932	234.00169	982.35681	728.94690	183.94017	973.41534	731.93646	223.40044	998.62927	504.18613	206.50737	1106.50891	464.93900	269.38110	961.71497	267.86053	319.74167	966.78729	278.01462	306.14020	968.40997	214.10846	277.42944	1054.38611	86.20538	309.65826	965.96442	80.12322	354.47656	1015.25629	22.01203	142.84610	996.72699	40.00152	185.67017	915.62292	26.60084	149.07587	948.55920	30.09621	222.19829	1410.17725	782.08856	190.41290	1417.26941	724.26923	239.82733	1408.70520	717.87451	217.99960	1384.00452	494.79086	195.99445	1277.39746	477.52100	244.74304	1414.04492	277.38400	268.56906	1414.00806	215.71893	294.91779	1422.79395	274.36780	295.12354	1409.93311	79.97762	257.49573	1322.69385	83.34399	343.87247	1366.35156	30.20510	184.12827	1460.94690	27.38899	124.54436	1389.68994	36.00632	135.74767	1438.13708	28.36854	216.49336	769.84869	1356.89014	279.44800	762.30109	1447.16565	288.33295	829.21204	1440.51904	254.11584	887.92218	1482.61230	291.35736	890.55286	1449.39099	199.45370	520.05963	1480.24194	157.41519	534.52863	1501.26221	115.08011	434.05356	1492.27087	216.55856	1902.14551	1467.07556	173.08192	1883.77979	1491.68787	156.26646	1996.41614	1486.90247	230.61533	1638.30310	1351.51257	295.87607	1653.78320	1439.64612	310.47424	1548.30627	1425.89880	290.25220	1586.07959	1450.75867	290.54742	1509.50159	1471.17676				-516.96246	13.41637	49.45825	-507.39496	-22.76326	40.81755				-536.35822	1937.84961	32.76311							276.30963	1366.31348	81.66080	293.54385	1010.17526	83.16430	214.95390	1052.56909	484.56256	206.99702	1330.70099	486.15593	209.79889	1104.78168	1025.17499	206.18224	1292.93695	1019.01791 
126	0.625	66.05509	1220.97400	1709.75024	150.76523	1120.27344	1680.32080	163.17265	1314.49231	1675.62488	-530.28821	2111.25830	25.79602	-499.41904	-112.26884	36.27047	109.67918	1329.74792	988.02960	302.66779	1256.12329	1050.01221	303.15726	1148.76392	1055.45544	116.46758	1060.76343	994.88806	303.62534	1201.75903	1074.51746	294.88092	1207.10242	1492.80859	124.79859	1207.22864	1448.99817	293.56992	1202.20032	1170.53772	274.41446	1366.68262	1484.18066	273.04221	1046.74646	1491.14624	212.82397	982.94000	792.18750	233.99661	982.36407	728.93896	183.92957	973.41840	731.92554	223.36967	998.63531	504.20529	206.50278	1106.49683	464.94345	269.38837	961.73560	267.86465	319.73447	966.78149	278.01135	306.12946	968.42505	214.09216	277.42395	1054.39282	86.20844	309.66464	965.96857	80.12093	354.47235	1015.25677	22.02377	142.84694	996.72717	39.99916	185.67479	915.62164	26.60335	149.07198	948.55743	30.09027	222.18993	1410.18652	782.09052	190.41667	1417.25732	724.27905	239.81952	1408.72400	717.85815	217.99297	1384.01880	494.79932	195.97769	1277.39966	477.52164	244.62157	1413.62427	277.33148	268.57385	1413.99817	215.71152	294.90604	1422.79797	274.36874	295.11176	1409.91785	79.97482	257.49545	1322.68738	83.35172	343.86862	1366.34973	30.20171	184.12428	1460.94067	27.39489	124.53907	1389.69727	36.00685	135.74078	1438.13599	28.37564	216.51111	769.83850	1356.87878	279.48083	762.30652	1447.16418	288.36792	829.21997	1440.51514	254.14418	887.92908	1482.60730	291.37833	890.55768	1449.39343	199.51888	520.05743	1480.24109	157.46658	534.52301	1501.25537	115.15450	434.03613	1492.26208	216.54080	1902.18982	1467.09082	173.05652	1883.76550	1491.74292	156.24330	1996.39587	1486.94836	230.61870	1638.31250	1351.52551	295.86444	1653.81104	1439.67371	310.46500	1548.29858	1425.92249	290.22086	1586.08118	1450.78833	290.53421	1509.50842	1471.18518							-507.37921	-20.99370	39.50942				-535.92346	1937.35193	33.10950							276.30360	1366.30261	81.66327	293.54430	1010.18069	83.16468	214.93623	1052.56607	484.57437	206.98533	1330.70923	486.16048	209.81242	1104.76367	1025.17175	206.17348	1292.93561	1019.02090 
127	0.630	66.01720	1220.97217	1709.74329	150.75253	1120.28796	1680.31458	163.14536	1314.48865	1675.62732	-530.15198	2111.50806	25.82508	-499.43622	-112.28378	36.27016	109.67766	1329.73352	988.02899	302.68323	1256.12866	1049.99243	303.15601	1148.77087	1055.45557	116.46621	1060.75781	994.89862	303.63382	1201.75635	1074.51050	294.88043	1207.11218	1492.80811	124.81719	1207.21130	1449.00415	293.57541	1202.20630	1170.53992	274.42282	1366.68213	1484.18530	273.05658	1046.74121	1491.13599	212.83670	982.95020	792.18341	233.98813	982.33313	728.97205	183.92528	973.42303	731.93677	223.39513	998.64050	504.20801	206.50249	1106.48621	464.93710	269.35706	961.72754	267.85696	319.73105	966.79095	278.00827	306.12088	968.41064	214.10655	277.41910	1054.39160	86.20670	309.67224	965.96375	80.12192	354.48013	1015.27527	22.01994	142.84445	996.72681	40.00225	185.67291	915.63031	26.59473	149.06880	948.55133	30.08505	222.19070	1410.18677	782.08771	190.39886	1417.25757	724.27814	239.82077	1408.72339	717.86176	217.97491	1384.00452	494.79260	195.94926	1277.37537	477.51257	244.71103	1414.03491	277.36722	268.55417	1414.00000	215.73042	294.89886	1422.79333	274.36078	295.12210	1409.92896	79.97581	257.50500	1322.69189	83.34164	343.86523	1366.35291	30.21337	184.12671	1460.94714	27.40583	124.53783	1389.68591	36.00764	135.73730	1438.13818	28.38033	216.53221	769.85095	1356.87952	279.51340	762.30609	1447.15930	288.40158	829.21716	1440.51099	254.14951	887.93634	1482.59998	291.40161	890.55389	1449.39893	199.57082	520.04449	1480.22388	157.50856	534.51758	1501.26306	115.21381	434.02771	1492.24451	216.50630	1902.18225	1467.11792	173.03012	1883.75684	1491.76721	156.23347	1996.40198	1487.00098	230.60538	1638.32813	1351.53442	295.85205	1653.82117	1439.69641	310.45364	1548.31616	1425.94360	290.19550	1586.10120	1450.79993	290.51270	1509.51050	1471.20935							-507.37152	-22.54993	40.72305				-535.92041	1937.33655	33.12098							276.31355	1366.31042	81.65873	293.54567	1010.17767	83.16431	214.94881	1052.56335	484.57256	206.96209	1330.68994	486.15259	209.81111	1104.76434	1025.17709	206.18044	1292.93109	1019.01071 
128	0.635	65.99756	1220.97461	1709.73364	150.74992	1120.27588	1680.30933	163.14369	1314.50024	1675.60474	-530.22015	2111.48047	25.83324	-499.43347	-112.28026	36.27373	109.69016	1329.73962	988.03918	302.68314	1256.12939	1049.97900	303.16223	1148.77783	1055.45911	116.48755	1060.75488	994.91107	303.61267	1201.75232	1074.53015	295.09601	1207.16614	1492.93579	124.80979	1207.21521	1448.98889	293.58603	1202.20361	1170.53613	274.42566	1366.68408	1484.17883	273.08603	1046.75464	1491.13428	212.78955	982.96478	792.17792	233.98978	982.34094	728.96924	183.94467	973.40887	731.93323	223.38033	998.62872	504.21445	206.48062	1106.48059	464.94623	269.35110	961.73309	267.82947	319.97531	966.43506	278.27029	306.10950	968.41547	214.11420	277.42267	1054.39722	86.20191	309.66989	965.97314	80.12479	354.47119	1015.26172	22.02846	142.84561	996.72839	40.00193	185.67549	915.63208	26.59476	149.07228	948.55902	30.09414	222.18665	1410.18420	782.08862	190.39282	1417.25684	724.28406	239.82562	1408.71753	717.85925	217.97195	1384.01001	494.79178	195.95187	1277.38245	477.51559	244.71574	1414.02234	277.38611	268.55429	1413.99536	215.73357	294.90140	1422.80273	274.36093	295.11279	1409.92969	79.97285	257.50012	1322.68738	83.34705	343.85889	1366.34998	30.19639	184.13210	1460.95227	27.41339	124.54131	1389.68567	36.01392	135.74181	1438.13684	28.36803	216.54297	769.86829	1356.86829	279.53256	762.31781	1447.16370	288.38922	829.22400	1440.49170	254.17113	887.94019	1482.59570	291.41544	890.55969	1449.39685	199.59471	520.02698	1480.22778	157.56993	534.51184	1501.25232	115.27306	434.01334	1492.23401	216.47125	1902.20398	1467.15295	173.00163	1883.75757	1491.80469	156.21053	1996.37402	1487.05103	230.60393	1638.35779	1351.55273	295.83847	1653.81396	1439.71411	310.43671	1548.31934	1425.96130	290.17474	1586.12573	1450.81445	290.50314	1509.53027	1471.21387	-575.34930	1992.83667	7.38609																			276.30646	1366.30853	81.65995	293.54628	1010.18518	83.16335	214.93047	1052.55466	484.58034	206.96191	1330.69623	486.15369	209.82489	1104.76636	1025.18509	206.18665	1292.93451	1019.00909 
